DataType=double
version=3
OpenSimVersion=4.5-2023-11-26-efcdfd3eb
endheader
time	EMG01_right_gast_med	EMG02_right_glut_max	EMG03_left_gast_med	EMG04_left_glut_max	EMG05_right_glut_med	EMG06_right_bic_fem	EMG07_right_rect_fem	EMG08_right_vast_lat	EMG09_right_vast_med	EMG10_right_tens_fasc_lat	EMG11_left_glut_med	EMG12_left_bic_fem	EMG13_left_rect_fem	EMG14_left_vast_lat	EMG15_left_vast_med	EMG16_left_tens_fasc_lat
1.6	0.2177337924469722	0.01390924570744905	0.0005648603328677574	0.09859315969234389	0.02309307371772062	0.005459466227688721	0.04015686823571087	0.009006822073524386	0.0183545842020055	0.04123555740820629	0.05820254084921198	0.06494146978992237	0.02943527433165153	0.03504213045215814	-0.002066023767609467	0.08253869025891318
1.61	0.218135110406851	0.01040817643510588	0.0034212249738595	0.09568481210896114	0.02416335143272031	0.00579198784135541	0.04251434494262988	0.008912105589704074	0.01613564080062533	0.03896438686598076	0.06268789370781354	0.06838611272211545	0.03160785862010809	0.03747484833443132	-0.001423450677389579	0.08545582964094536
1.62	0.218171322408449	0.007461384197446345	0.006280903326223033	0.09294060124868342	0.02576056604305589	0.006241659203883725	0.0451412465512492	0.008907511988200946	0.01415951077363031	0.03702066344824964	0.06744087494974262	0.07169776682342686	0.03392065248533923	0.04008578515764742	-0.0003324741932811922	0.08849355030727922
1.63	0.2177883148958195	0.005111924901919129	0.009139323843836929	0.09038097212667927	0.02787725303145374	0.006795778109102045	0.04800975381050725	0.008994066720949311	0.01243093370589343	0.03541961959974764	0.0724413964116899	0.0748466282088231	0.03636407065924355	0.04285549738481879	0.001223402998088831	0.0916541099079284
1.64	0.2169340194501971	0.003399112083776382	0.0119954414802644	0.08802201198867489	0.03049987777825963	0.007442793360189114	0.05108746133481806	0.009172105995271721	0.01095212057040031	0.03417281280526233	0.0776650480831573	0.07780415313786013	0.03892734301842997	0.04576185196820422	0.003256183427099195	0.09493804798743237
1.65	0.2155602183522535	0.002358180553304249	0.01485120127090729	0.08587542283133384	0.03360873664592418	0.008172329621871062	0.05433781336361115	0.009441280516105457	0.009722827744537364	0.03328816448039162	0.08308314697223172	0.0805434010333714	0.04159855345291368	0.04878028288732864	0.005773062952243087	0.09834404501763959
1.66	0.2136242998467658	0.002019945497387018	0.01771097219355366	0.08394853905419206	0.03717792988538451	0.008975179341584838	0.05772063101842172	0.009800555111281282	0.0087404489975075	0.03277003654456345	0.08866285450039034	0.08303935670601803	0.04436468761293782	0.05188408533782028	0.008776158356036024	0.1018687907830942
1.67	0.2110908922025277	0.002410456452765831	0.0205809643122267	0.0822443919566217	0.04117541454906257	0.009843261763674687	0.06119272562634055	0.0102482042091734	0.008000124489911994	0.03261934119226157	0.0943673688284271	0.08526923240043803	0.0472116876244097	0.05504474383740435	0.01226228068051715	0.1055068644008659
1.68	0.2079333071960633	0.003550646770456315	0.02346864215932612	0.08076182439090779	0.04556314519755345	0.01076955005794609	0.06470859033250045	0.01078180396734925	0.007494865773654416	0.03283367972293431	0.1001561965343257	0.0872127503307417	0.05012451154802451	0.05823229029556413	0.01622276072958797	0.1092506268583732
1.69	0.204134727063844	0.005455980517527753	0.02638214692086715	0.07949565908355644	0.05029730935347747	0.01174796906174093	0.06822115960526816	0.01139822244054213	0.007215695662508195	0.03340750686832177	0.1059855053191725	0.0888524047502056	0.05308719581358573	0.06141568780588733	0.0206433331388728	0.1130901263177621
1.7	0.1996890755589811	0.008136100420944366	0.02932973931785034	0.07843692306886478	0.05532866339037037	0.0127732676888054	0.0716826235191904	0.01209360949275007	0.007151801625637613	0.03433231728269497	0.1118085568189045	0.09017370036074644	0.05608291987847448	0.06456323574020585	0.02550408518821761	0.1170130166168349
1.71	0.1946015266280318	0.01159448247111151	0.0323192742385643	0.07757312893686316	0.06060297291864787	0.01384087120109199	0.0750452809839013	0.01286338834551166	0.007290701069915634	0.03559685035821414	0.1175762164512321	0.09116536194148234	0.05909407328407362	0.06764299184572707	0.03077947609055399	0.1210044897848415
